<svg xmlns="http://www.w3.org/2000/svg" width="111" height="24" viewBox="0 0 111 24" fill="none">
    <path
        d="M57.1136 11.9494C57.1136 18.5488 51.7637 23.8987 45.1642 23.8987C38.5648 23.8987 33.2148 18.5488 33.2148 11.9494C33.2148 5.34991 38.5648 0 45.1642 0C51.7637 0 57.1136 5.34991 57.1136 11.9494Z"
        fill="#FFB71B"
    />
    <path
        fill-rule="evenodd"
        clip-rule="evenodd"
        d="M0 2.83544C0 1.30337 1.21511 0.0550976 2.73418 0.00177461V0H2.83544H16.5063C20.589 0 23.8987 3.30969 23.8987 7.39241C23.8987 9.1116 23.3119 10.6937 22.3275 11.9494C23.3119 13.205 23.8987 14.7871 23.8987 16.5063C23.8987 20.589 20.589 23.8987 16.5063 23.8987H2.83544H2.73418V23.897C1.21511 23.8436 0 22.5954 0 21.0633V2.83544ZM5.67089 5.67087H16.5063C17.4571 5.67087 18.2278 6.44162 18.2278 7.39239C18.2278 8.34315 17.4571 9.1139 16.5063 9.1139H5.67089V5.67087ZM5.67089 14.7848H16.5063C17.4571 14.7848 18.2278 15.5555 18.2278 16.5063C18.2278 17.4571 17.4571 18.2278 16.5063 18.2278H5.67089V14.7848Z"
        fill="url(#paint0_linear_4665_118976)"
    />
    <path
        d="M29.4683 23.8984C31.0342 23.8984 32.3037 22.629 32.3037 21.063C32.3037 19.497 31.0342 18.2275 29.4683 18.2275C27.9023 18.2275 26.6328 19.497 26.6328 21.063C26.6328 22.629 27.9023 23.8984 29.4683 23.8984Z"
        fill="url(#paint1_linear_4665_118976)"
    />
    <path
        d="M57.1136 11.9494C57.1136 18.5488 51.7637 23.8987 45.1642 23.8987C38.5648 23.8987 33.2148 18.5488 33.2148 11.9494C33.2148 5.34991 38.5648 0 45.1642 0C51.7637 0 57.1136 5.34991 57.1136 11.9494Z"
        fill="url(#paint2_linear_4665_118976)"
    />
    <path
        d="M52.1663 12.3114C51.9865 12.0052 51.7307 11.772 51.4689 11.5369C50.6276 10.79 49.5725 10.2605 48.4954 10.0194C48.4155 10.0016 48.3635 9.92853 48.3715 9.84949C48.4854 8.82796 48.3615 7.78272 47.9878 6.80664C47.8599 6.86394 47.6981 6.9489 47.5042 7.07141L47.4902 7.08129C47.8679 8.11665 47.9459 9.22511 47.736 10.2783C47.718 10.3711 47.782 10.46 47.8779 10.4739C49.3387 10.6794 50.7235 11.4223 51.6907 12.5545C50.8494 13.2678 49.8483 13.7973 48.7752 14.0581C48.6992 14.0759 48.6473 14.145 48.6513 14.2241C48.7172 15.4867 48.4235 16.7552 47.822 17.8676C51.4829 19.1618 54.2466 15.4827 52.1683 12.3134L52.1663 12.3114Z"
        fill="#FFB71B"
    />
    <path
        d="M47.8569 5.92105C46.5839 6.46837 45.4629 7.44445 44.7675 8.61022C44.7255 8.67937 44.6396 8.70901 44.5656 8.67542C43.6384 8.25851 42.5833 8.04907 41.5342 8.09451C41.5462 8.23282 41.5721 8.4146 41.6221 8.63788V8.64973C42.7392 8.61417 43.8263 8.88289 44.7775 9.40649C44.8614 9.45194 44.9673 9.42033 45.0093 9.33339C45.6487 8.02338 46.8018 6.95443 48.1806 6.38736L48.2585 6.57506C48.6482 7.53534 48.8021 8.57663 48.7321 9.59815C48.7261 9.67521 48.7761 9.74437 48.852 9.7661C49.8292 10.0269 50.7365 10.4972 51.5198 11.1413H51.5218C51.7196 11.3093 51.9135 11.4831 52.0953 11.6708C52.3811 11.3172 52.5949 10.8686 52.7148 10.4577C53.8339 7.49187 50.7405 4.69996 47.8569 5.91907V5.92105Z"
        fill="#FFB71B"
    />
    <path
        d="M46.9948 16.8165L47.0048 16.7968C46.9569 16.7652 46.9109 16.7335 46.8649 16.7C46.0017 16.0776 45.3442 15.2754 44.9046 14.3467C44.8646 14.2617 44.7587 14.2262 44.6748 14.2716C43.3739 14.9533 41.8052 15.1647 40.3564 14.8051C40.6142 13.7361 41.1058 12.7304 41.8192 11.8927C41.8691 11.8334 41.8711 11.7464 41.8212 11.6872C41.0198 10.7071 40.5043 9.51172 40.3304 8.25111V8.23926C39.9607 8.3341 39.577 8.51785 39.2693 8.72137C35.7422 11.0173 37.7666 15.7377 41.7992 15.5342C42.7284 15.5342 43.6237 15.3465 44.443 14.9987C44.5189 14.9671 44.6088 14.9948 44.6488 15.0659C45.1504 15.9412 45.8778 16.7237 46.751 17.2967C46.823 17.1781 46.9089 17.02 46.9968 16.8165H46.9948Z"
        fill="#FFB71B"
    />
    <path
        d="M50.8214 12.1202L50.8114 12.1123C49.9322 12.7881 48.891 13.201 47.8139 13.3334C47.718 13.3453 47.6521 13.4322 47.6701 13.527C47.9219 14.9576 47.6501 16.5086 46.8448 17.7534L46.6769 17.6467C45.7856 17.0836 45.0562 16.3506 44.5067 15.4792C44.4647 15.414 44.3828 15.3863 44.3089 15.414C43.1219 15.8645 41.803 15.9831 40.548 15.7578C40.3622 19.3104 44.5247 21.146 46.9746 18.443C48.0418 17.301 48.4274 15.493 48.2955 13.9716C48.2895 13.8926 48.3475 13.8155 48.4254 13.7977C49.4266 13.5942 50.4058 13.1477 51.2291 12.4976C51.1332 12.3949 50.9993 12.2664 50.8214 12.1202Z"
        fill="#FFB71B"
    />
    <path
        d="M47.0413 5.20422C47.0413 5.20422 47.0413 5.20422 47.0393 5.20224C44.5514 2.50516 40.201 4.63319 40.6607 8.18188C40.6607 8.18188 40.6607 8.18188 40.6607 8.18385C40.8265 9.46818 41.408 10.7327 42.2613 11.6871C42.3153 11.7484 42.3133 11.8392 42.2613 11.8985C41.5779 12.6434 41.0483 13.5721 40.7706 14.5739C40.9065 14.6055 41.0863 14.6371 41.3101 14.6588H41.3301C41.6398 13.6017 42.2353 12.6592 43.0327 11.9242C43.1026 11.859 43.1026 11.7503 43.0347 11.6851C42.9428 11.5962 42.8528 11.5053 42.7669 11.4085C41.8637 10.4403 41.2881 9.12042 41.1842 7.78275C42.2833 7.69186 43.4224 7.84993 44.4375 8.25894C44.5114 8.28858 44.5934 8.26289 44.6373 8.19769C45.3308 7.14454 46.3179 6.28898 47.475 5.73376C47.3531 5.54802 47.2032 5.36822 47.0433 5.20422H47.0413Z"
        fill="#FFB71B"
    />
    <path
        fill-rule="evenodd"
        clip-rule="evenodd"
        d="M107.653 10.7466C108.935 9.94026 109.787 8.5127 109.787 6.88608C109.787 5.71333 109.344 4.64406 108.616 3.83647L108.617 3.83219C106.434 1.47533 103.313 0 99.8478 0C93.2484 0 87.8984 5.34991 87.8984 11.9494C87.8984 18.5488 93.2484 23.8987 99.8478 23.8987C104.258 23.8987 108.111 21.5092 110.181 17.954L110.18 17.9533C110.539 17.3263 110.66 16.5627 110.459 15.8096C110.053 14.297 108.498 13.3993 106.986 13.8047C106.219 14.01 105.611 14.5105 105.25 15.1511C104.155 16.9932 102.146 18.2278 99.8478 18.2278C98.5904 18.2278 97.4194 17.8582 96.4374 17.2217L107.355 10.9184L107.577 10.79L107.653 10.7466ZM100.817 5.74528C100.501 5.6963 100.178 5.67089 99.8478 5.67089C96.3803 5.67089 93.5693 8.48186 93.5693 11.9494C93.5693 12.0748 93.573 12.1994 93.5803 12.3231L100.845 8.12889L103.306 6.7081C102.57 6.22172 101.726 5.8861 100.817 5.74528Z"
        fill="url(#paint3_linear_4665_118976)"
    />
    <path
        fill-rule="evenodd"
        clip-rule="evenodd"
        d="M63.3921 0C61.8261 0 60.5566 1.26947 60.5566 2.83544V21.0633C60.5566 22.6293 61.8261 23.8987 63.3921 23.8987C64.1737 23.8987 64.8814 23.5825 65.3943 23.0709C65.3981 23.0673 65.4018 23.0636 65.4055 23.0599L83.6136 4.85174C84.7209 3.74443 84.7209 1.94913 83.6136 0.841819C82.5063 -0.26549 80.711 -0.265493 79.6037 0.841816L66.2275 14.218V2.83544C66.2275 1.26947 64.9581 0 63.3921 0Z"
        fill="#FFB71B"
    />
    <path
        fill-rule="evenodd"
        clip-rule="evenodd"
        d="M78.7841 9.68087L76.5142 11.9507C75.4069 13.058 73.6116 13.058 72.5043 11.9507C71.397 10.8434 71.397 9.04812 72.5043 7.94081L79.6033 0.841811C79.6033 0.841772 79.6034 0.841734 79.6034 0.841695C80.1174 0.321995 80.8309 0 81.6195 0C83.1855 0 84.455 1.26947 84.455 2.83544V21.0633C84.455 22.6293 83.1855 23.8987 81.6195 23.8987C80.0536 23.8987 78.7841 22.6293 78.7841 21.0633V9.68087Z"
        fill="url(#paint4_linear_4665_118976)"
    />
    <defs>
        <linearGradient
            id="paint0_linear_4665_118976"
            x1="0.607593"
            y1="-13.4857"
            x2="36.8062"
            y2="14.5576"
            gradientUnits="userSpaceOnUse"
        >
            <stop stop-color="#005452" />
            <stop offset="0.5" stop-color="#016B69" />
            <stop offset="1" stop-color="#11AE8D" />
        </linearGradient>
        <linearGradient
            id="paint1_linear_4665_118976"
            x1="26.6328"
            y1="18.3441"
            x2="32.186"
            y2="24.0137"
            gradientUnits="userSpaceOnUse"
        >
            <stop stop-color="#005452" />
            <stop offset="0.5" stop-color="#016B69" />
            <stop offset="1" stop-color="#11AE8D" />
        </linearGradient>
        <linearGradient
            id="paint2_linear_4665_118976"
            x1="33.2148"
            y1="0"
            x2="57.1136"
            y2="23.8987"
            gradientUnits="userSpaceOnUse"
        >
            <stop stop-color="#005452" />
            <stop offset="0.5" stop-color="#016B69" />
            <stop offset="1" stop-color="#11AE8D" />
        </linearGradient>
        <linearGradient
            id="paint3_linear_4665_118976"
            x1="87.8984"
            y1="0"
            x2="111.765"
            y2="22.6542"
            gradientUnits="userSpaceOnUse"
        >
            <stop stop-color="#005452" />
            <stop offset="0.5" stop-color="#016B69" />
            <stop offset="1" stop-color="#11AE8D" />
        </linearGradient>
        <linearGradient
            id="paint4_linear_4665_118976"
            x1="71.6738"
            y1="0"
            x2="91.5509"
            y2="10.6304"
            gradientUnits="userSpaceOnUse"
        >
            <stop stop-color="#005452" />
            <stop offset="0.5" stop-color="#016B69" />
            <stop offset="1" stop-color="#11AE8D" />
        </linearGradient>
    </defs>
</svg>
